<?xml version="1.0" encoding="UTF-8" standalone="no"?>
<svg
   xmlns:dc="http://purl.org/dc/elements/1.1/"
   xmlns:cc="http://creativecommons.org/ns#"
   xmlns:rdf="http://www.w3.org/1999/02/22-rdf-syntax-ns#"
   xmlns:svg="http://www.w3.org/2000/svg"
   xmlns="http://www.w3.org/2000/svg"
   xmlns:sodipodi="http://sodipodi.sourceforge.net/DTD/sodipodi-0.dtd"
   xmlns:inkscape="http://www.inkscape.org/namespaces/inkscape"
   version="1.1"
   x="0px"
   y="0px"
   viewBox="0 0 85.602997 78.72423"
   enable-background="new 0 0 98 98"
   xml:space="preserve"
   id="svg3795"
   sodipodi:docname="noun_alchemy symbol_511016.svg"
   width="85.602997"
   height="78.724228"
   inkscape:version="0.92.4 5da689c313, 2019-01-14"><metadata
     id="metadata3801"><rdf:RDF><cc:Work
         rdf:about=""><dc:format>image/svg+xml</dc:format><dc:type
           rdf:resource="http://purl.org/dc/dcmitype/StillImage" /></cc:Work></rdf:RDF></metadata><defs
     id="defs3799" /><sodipodi:namedview
     pagecolor="#ffffff"
     bordercolor="#666666"
     borderopacity="1"
     objecttolerance="10"
     gridtolerance="10"
     guidetolerance="10"
     inkscape:pageopacity="0"
     inkscape:pageshadow="2"
     inkscape:window-width="1920"
     inkscape:window-height="1015"
     id="namedview3797"
     showgrid="false"
     inkscape:zoom="6.8081633"
     inkscape:cx="15.682208"
     inkscape:cy="38.188567"
     inkscape:window-x="0"
     inkscape:window-y="0"
     inkscape:window-maximized="1"
     inkscape:current-layer="svg3795" /><path
     d="m 3.9340002,53.411228 c 0.138,-0.068 0.262,-0.166 0.379,-0.275 l -0.892,0.617 c 0.112,0 0.283,-0.112 0.513,-0.342 z"
     id="path3777"
     inkscape:connector-curvature="0" /><path
     d="m 2.395,52.726228 -0.171,0.172 0.5140002,-0.428 v 0 c -0.116,0.059 -0.2310002,0.145 -0.3430002,0.256 z"
     id="path3779"
     inkscape:connector-curvature="0" /><path
     d="m 3.2500002,52.043228 -0.512,0.427 c 0.112,-0.058 0.282,-0.198 0.512,-0.427 z"
     id="path3781"
     inkscape:connector-curvature="0" /><path
     d="m 64.685,1.6662281 c 0.086,-0.196 0.137,-0.393 0.137,-0.592 z"
     id="path3783"
     inkscape:connector-curvature="0" /><path
     d="m 2.9080002,50.589228 c 0.57,0.059 1.254,0.086 2.053,0.086 l -1.539,1.196 H 0.343 l 2.9070002,0.172 2.053,0.17 c -0.342,0.23 -0.599,0.457 -0.77,0.685 -0.068,0.091 -0.144,0.165 -0.22,0.238 l 1.331,-0.923 16.5899998,0.685 0.684,10.946 1.369,-11.118 c 0.569,0.231 1.082,0.402 1.539,0.514 1.026,0.457 1.994,0.572 2.907,0.343 0.912,-0.229 1.454,-0.398 1.625,-0.514 0.171,-0.111 0.54,-0.111 1.112,0 h 0.342 c -0.116,0.456 -0.401,0.799 -0.855,1.027 -0.23,0.114 -0.286,0.342 -0.171,0.683 0.112,0.343 0.283,0.658 0.513,0.94 0.228,0.287 0.428,0.458 0.599,0.514 0.171,0.06 0.257,-0.142 0.257,-0.6 -0.115,-0.683 0.056,-1.252 0.513,-1.709 0,0.23 0.026,0.371 0.085,0.429 0.057,0.057 0.085,0.143 0.085,0.257 v 0.341 l 0.343,-0.341 c 0.112,0.683 0.398,1.311 0.855,1.88 0.227,0.342 0.398,0.572 0.513,0.685 l -0.513,1.88 2.223,4.277 5.131,15.392 c -0.342,-1.253 -0.743,-2.564 -1.198,-3.933 -0.342,-1.254 -0.713,-2.592 -1.111,-4.019 -0.401,-1.425 -0.829,-2.936 -1.283,-4.533 -0.456,-1.596 -0.884,-3.104 -1.282,-4.532 -0.401,-1.425 -0.77,-2.764 -1.112,-4.019 -0.799,-2.622 -1.085,-3.935 -0.855,-3.935 l 0.342,0.514 c 0.342,0.684 0.741,1.709 1.197,3.078 0.454,1.368 0.94,2.881 1.454,4.532 0.513,1.653 1.053,3.365 1.625,5.131 0.569,1.77 1.082,3.394 1.539,4.875 -0.572,0.229 -0.77,0.372 -0.599,0.426 0.17,0.061 0.427,0.146 0.77,0.257 0.227,0.343 0.369,0.714 0.427,1.113 0.057,0.4 0.142,0.713 0.257,0.939 l -0.171,0.343 0.171,0.171 0.342,0.684 c -0.229,1.027 -0.371,1.826 -0.427,2.396 -0.059,0.571 0.026,0.571 0.257,0 v -0.172 c 0,0.116 0.056,0 0.17,-0.341 l 0.514,-0.514 c 0.227,-0.228 0.427,-0.399 0.598,-0.514 0.171,-0.111 0.369,-0.228 0.599,-0.342 h 0.684 v -0.685 c 0,-0.568 0.172,-0.91 0.514,-1.026 0.227,-0.112 0.6,-0.084 1.111,0.086 0.514,0.171 0.969,0.315 1.368,0.428 0.399,0.116 0.656,0.172 0.771,0.172 0.111,0 -0.061,-0.284 -0.514,-0.854 -0.57,-0.571 -1.142,-1.027 -1.709,-1.37 -0.573,-0.342 -1.027,-0.685 -1.369,-1.026 0.112,-0.226 0.198,-0.368 0.257,-0.427 0.057,-0.056 0.143,-0.198 0.256,-0.427 0.228,-0.229 0.569,-0.626 1.026,-1.198 0.342,0 0.599,0 0.769,0 0.171,0 0.143,-0.282 -0.084,-0.855 0,-0.111 -0.03,-0.172 -0.086,-0.172 -0.059,0 -0.085,-0.054 -0.085,-0.171 0.227,-1.139 0.397,-1.938 0.512,-2.394 h 0.685 l -0.685,-0.856 v -0.341 c 0.114,-0.342 0.284,-0.74 0.514,-1.196 0.229,-0.229 0.399,-0.485 0.514,-0.771 0.111,-0.282 0.282,-0.483 0.514,-0.6 0.227,-0.111 0.342,-0.342 0.342,-0.683 0,-0.343 -0.06,-0.684 -0.171,-1.026 l 1.025,-0.685 -0.683,-2.224 1.88,-1.197 -0.514,-2.053 0.514,-0.512 2.907,0.171 0.685,-2.566 0.685,-0.171 0.854,0.343 v 0.683 l 0.854,-0.171 0.514,0.171 0.685,-0.683 h 0.171 l 1.709,0.683 1.37,-0.683 0.513,0.17 0.514,-0.342 1.538,0.684 0.855,-0.512 c 0.228,0.683 0.398,1.085 0.514,1.196 0.228,0.343 0.625,0.799 1.197,1.37 0.569,0.57 0.967,0.627 1.196,0.169 0.113,-0.227 0.343,-0.397 0.686,-0.512 0.342,-0.112 0.683,-0.229 1.025,-0.343 l 1.368,-0.342 c 0.911,0.229 1.766,0.4 2.564,0.514 0.685,0.114 1.396,0.114 2.14,0 0.739,-0.113 1.396,-0.455 1.966,-1.027 0.113,-0.111 0.229,-0.197 0.343,-0.257 0.111,-0.056 0.227,-0.142 0.342,-0.257 0.111,0.231 0.398,0.573 0.854,1.027 0.343,0.342 0.541,0.486 0.6,0.428 0.056,-0.057 0.085,-0.198 0.085,-0.428 0,-0.229 -0.029,-0.514 -0.085,-0.856 -0.059,-0.342 0.027,-0.567 0.255,-0.683 0.229,-0.113 0.627,-0.172 1.198,-0.172 0.228,0 0.514,0.059 0.856,0.172 -0.116,0 -0.116,-0.056 0,-0.172 0,-0.112 0.226,-0.283 0.683,-0.512 1.139,-0.229 1.993,-0.343 2.566,-0.343 0.568,0 0.568,-0.057 0,-0.171 h -0.171 -0.514 c -0.572,-0.112 -0.941,-0.283 -1.112,-0.514 -0.172,-0.228 -0.371,-0.453 -0.598,-0.685 -0.229,-0.227 -0.343,-0.453 -0.343,-0.685 -0.115,0.117 -0.229,0.171 -0.341,0.171 h -0.685 l -1.198,-1.025 c -0.114,-0.684 -0.114,-1.394 0,-2.139 0.112,-0.738 -0.114,-0.653 -0.684,0.257 -0.115,0.231 -0.171,0.402 -0.171,0.514 0,0.114 -0.059,0.285 -0.171,0.514 l -9.065,-8.21 -2.565,-4.105 -2.564,0.342 c -0.231,-0.454 -0.514,-0.912 -0.856,-1.368 -0.229,-0.342 -0.514,-0.711 -0.854,-1.112 -0.342,-0.398 -0.685,-0.711 -1.025,-0.941 -0.8,-0.341 -1.284,-0.513 -1.455,-0.513 -0.171,0 -0.485,-0.228 -0.94,-0.684 -0.342,-0.228 -0.4,-0.685 -0.171,-1.369 0.113,-0.342 0.227,-0.625 0.341,-0.855 l -2.051,0.513 v -0.685 c 0.453,-0.227 0.882,-0.454 1.282,-0.684 0.398,-0.227 0.712,-0.341 0.94,-0.341 0.228,0 0.399,-0.142 0.513,-0.428 0.113,-0.283 0.144,-0.598 0.086,-0.941 -0.059,-0.341 -0.144,-0.598 -0.257,-0.77 -0.114,-0.171 -0.285,-0.026 -0.514,0.428 -0.228,0.684 -0.741,1.025 -1.537,1.025 0.111,-0.341 0.227,-0.739 0.342,-1.197 0.111,-0.454 0.171,-0.855 0.171,-1.197 v -1.368 l 1.367,-1.368 0.514,-4.618 2.053,-8.2089999 c 0.796,0.115 0.854,-0.171 0.171,-0.855 l 0.512,-2.052 h 0.343 l 0.171,-0.171 v -0.171 c 0,-0.227 0.058,-0.455 0.172,-0.684 0.685,-0.797 1.254,-1.395 1.71,-1.796 0.455,-0.398 0.398,-0.427 -0.171,-0.086 h -0.17 l -0.343,0.171 c -0.458,0.229 -0.799,0.342 -1.026,0.342 l 0.376,-1.632 c -0.013,0.031 -0.02,0.062 -0.034,0.092 -0.229,0.343 -0.4,0.855 -0.514,1.54 -0.57,0 -0.97,-0.113 -1.196,-0.342 0.112,-0.227 0.171,-0.455 0.171,-0.684 0,-0.228 0.056,-0.454 0.171,-0.684 0,-0.028 0.009,-0.047 0.011,-0.073 l -0.524,1.441 -0.171,-0.171 -0.341,0.684 c -0.343,0.342 -0.744,0.514 -1.198,0.514 -0.229,0 -0.514,-0.228 -0.855,-0.684 -0.342,-0.454 -0.628,-0.855 -0.854,-1.197 -0.23,-0.343 -0.401,-0.54 -0.513,-0.599 -0.115,-0.056 -0.115,0.256 0,0.941 0.226,0.799 0.427,1.512 0.598,2.138 0.172,0.628 0.37,1.17 0.598,1.625 -0.456,0.229 -0.799,0.342 -1.024,0.342 -0.573,0 -1.087,0.17 -1.54,0.513 -0.229,-0.227 -0.428,-0.398 -0.6,-0.513 -0.171,-0.113 -0.313,0.115 -0.426,0.684 v 0.513 c -0.799,0.572 -1.368,1.142 -1.711,1.71 l -0.685,-0.341 v 1.0249999 l -0.171,0.171 c -0.457,0.229 -0.854,0.457 -1.197,0.684 -0.914,0.457 -1.427,0.628 -1.539,0.513 -0.456,0 -0.799,0.457 -1.027,1.368 h -1.373 l -0.685,2.223 h -2.394 l -0.514,1.881 H 44.98 l -0.855,-0.684 -1.368,1.026 -0.684,0.513 -0.684,-0.342 -0.342,-0.684 0.513,-0.513 -0.855,-0.343 -0.342,-0.513 -0.855,0.171 -0.171,-0.171 -0.855,-1.539 -1.367,-0.338 -0.342,-0.342 h -0.514 l -0.855,-1.54 -0.855,-0.17 c 0.228,-0.454 0.342,-0.855 0.342,-1.197 0.112,-0.4549999 0.142,-1.0529999 0.086,-1.7959999 -0.06,-0.741 -0.372,-0.997 -0.941,-0.77 -0.457,0.115 -1.085,0 -1.881,-0.341 -0.458,-0.114 -0.856,-0.285 -1.198,-0.514 -0.457,-0.684 -0.914,-1.31 -1.369,-1.881 -0.457,-0.455 -1.026,-0.882 -1.71,-1.283 -0.684,-0.398 -1.426,-0.54 -2.223,-0.427 -0.342,0 -0.628,-0.056 -0.855,-0.171 0.112,-0.228 0.171,-0.626 0.171,-1.198 0,-0.911 -0.171,-1.02599999 -0.513,-0.342 -0.342,0.684 -0.743,1.026 -1.197,1.026 -0.23,0 -0.572,-0.227 -1.026,-0.684 l -0.513,-0.513 c 0,0.115 -0.059,0.171 -0.171,0.171 -0.115,0 -0.201,0.029 -0.257,0.086 -0.059,0.058 -0.201,0.029 -0.427,-0.086 -0.915,-0.569 -1.625,-1.02599999 -2.138,-1.36899999 -0.513,-0.342 -0.542,-0.283 -0.086,0.171 l 0.171,0.171 c -0.115,-0.112 -0.171,-0.142 -0.171,-0.085 0,0.056 0.11,0.192 0.318,0.401 -0.004,0.073 0.001,0.18499999 0.024,0.36799999 v 0.171 c -0.23,-0.112 -0.23,0.058 0,0.513 0,0.799 -0.23,1.427 -0.684,1.881 l -0.514,0.513 c 0.228,0.115 0.398,0.286 0.514,0.513 0.227,0.457 0.227,0.855 0,1.197 -0.115,0.23 -0.428,0.4 -0.941,0.513 -0.513,0.115 -0.97,0.23 -1.368,0.342 -0.401,0.115 -0.658,0.229 -0.77,0.342 -0.116,0.115 0.17,0.229 0.855,0.342 0.796,0.23 1.509,0.316 2.137,0.257 0.625,-0.057 1.224,-0.026 1.796,0.085 0,0.572 -0.06,0.914 -0.171,1.026 -0.229,0.572 -0.229,1.0849999 0,1.5389999 -0.914,0.458 -0.97,0.799 -0.171,1.026 l 0.343,0.342 c 0.227,0.457 0.398,0.855 0.513,1.198 0.113,0.341 0.228,0.684 0.342,1.026 l -0.514,0.513 1.026,0.342 0.171,0.17 c 0.112,0.342 0.171,0.743 0.171,1.198 0,0.341 0,0.684 0,1.026 0,0.341 -0.059,0.571 -0.171,0.684 -0.23,0.572 0.056,1.085 0.855,1.54 l -0.513,1.197 1.709,1.54 -0.854,2.052 1.54,1.369 -0.685,2.395 2.053,-0.514 -0.342,2.395 0.855,0.171 -0.684,0.513 0.342,0.684 c -0.229,0 -0.457,-0.113 -0.684,-0.342 l -0.171,-0.171 0.342,0.685 -3.25,0.854 2.737,1.71 -0.342,0.171 c -0.115,0 -0.17,0.059 -0.17,0.171 -1.369,0.229 -2.395,0.115 -3.079,-0.342 -0.23,-0.112 -0.457,-0.086 -0.684,0.085 -0.23,0.171 -0.427,0.401 -0.599,0.684 -0.171,0.286 -0.257,0.542 -0.257,0.77 0,0.23 0.171,0.23 0.514,0 0.684,-0.454 1.368,-0.454 2.052,0 -0.115,0 -0.171,0.059 -0.171,0.17 l -2.907,1.026 1.71,0.171 c -0.229,0.229 -0.401,0.427 -0.514,0.599 -0.115,0.171 -0.229,0.315 -0.341,0.428 -0.115,0.229 -0.23,0.342 -0.343,0.342 l -2.052,0.342 -3.079,3.591 -9.4059998,8.039 L 0,50.501228 h 1.368 c 0.455,0.003 0.968,0.031 1.5400002,0.088 z M 81.242,49.134228 c -0.343,0 -0.572,-0.111 -0.686,-0.341 l -0.342,-0.342 z M 19.195,1.2042281 c 0.31,0.471 0.474,0.94 0.474,1.41 -0.202,-0.643 -0.358,-1.107 -0.474,-1.41 z m 2.184,8.251 c -0.115,-0.227 -0.171,-0.454 -0.171,-0.684 0,0.115 0.056,0.171 0.171,0.171 z m 5.987,41.7329999 c -0.572,0.114 -1.684,0.199 -3.335,0.255 -1.654,0.059 -3.506,0.116 -5.559,0.172 -2.053,0.058 -4.19,0.115 -6.414,0.171 -2.2229998,0.059 -4.1899998,0.085 -5.8999998,0.085 l 1.709,-1.196 H 13.682 c 1.71,0 3.392,0 5.046,0 1.652,0 3.105,0.059 4.361,0.171 2.849,0 4.276,0.059 4.276,0.171 v 0.171 z m 3.762,-1.37 h -0.855 c -0.229,-0.227 -0.457,-0.342 -0.684,-0.342 h 1.369 v 0.171 h 0.171 c 0.112,0.116 0.228,0.171 0.342,0.171 z m 10.605,24.459 -0.342,-1.54 c 0.342,0 0.513,0.115 0.513,0.342 0.112,0.343 0.055,0.743 -0.171,1.198 z m 2.222,-3.848 c 0,0.059 -0.059,0.145 -0.171,0.257 v -0.171 l 0.342,-0.343 c -0.114,0.114 -0.171,0.2 -0.171,0.257 z m 1.712,-6.585 -0.686,-0.685 1.54,-1.026 0.171,1.026 z m 1.026,-8.894 0.17,1.368 -0.17,0.342 0.17,0.514 -1.024,1.368 0.17,0.854 c -0.684,0 -1.14,0.06 -1.368,0.171 -0.343,0.115 -0.343,0.201 0,0.257 0.342,0.06 0.685,0.315 1.027,0.771 0.225,0.229 0.196,0.542 -0.086,0.94 -0.287,0.4 -0.6,0.828 -0.941,1.282 -0.457,0.456 -0.97,1.026 -1.539,1.712 -0.572,0.683 -1.026,1.366 -1.368,2.051 -0.23,0.572 -0.401,1.227 -0.514,1.968 -0.115,0.743 0,1.453 0.342,2.138 0.112,0.114 0.171,0.229 0.171,0.343 0,0.114 0.056,0.285 0.17,0.512 -0.342,0 -0.627,0.059 -0.855,0.171 l -2.052,-9.578 -0.855,-3.591 -1.198,-2.396 c 0.113,-0.342 0.171,-0.738 0.171,-1.196 0,-0.341 0,-0.711 0,-1.111 0,-0.399 -0.059,-0.826 -0.171,-1.284 l 0.685,1.198 c 0.569,0 1.139,-0.057 1.71,-0.171 0.57,-0.112 1.112,-0.197 1.625,-0.257 0.514,-0.057 1.054,-0.142 1.625,-0.257 l 2.394,1.71 -1.368,-1.881 h 0.513 l 2.224,1.881 v -1.539 l 0.684,1.37 z m 2.223,-4.104 -0.342,0.343 h -0.343 c -1.142,0.114 -1.997,0.057 -2.564,-0.172 0.111,-0.112 0.368,-0.228 0.769,-0.342 0.398,-0.112 1.168,-0.171 2.31,-0.171 h 0.171 v 0.342 z m -0.341,-8.382 v -0.513 h 0.171 z m 0.513,0 v -0.341 l 0.683,0.17 z m 2.736,2.908 c -0.23,0.457 -0.402,0.743 -0.514,0.854 -0.229,-0.453 -0.229,-0.967 0,-1.537 0.343,-1.37 0.625,-2.166 0.856,-2.396 0.111,0.23 0.171,0.543 0.171,0.941 0,0.401 -0.171,1.113 -0.513,2.138 z m 0.684,6.841 v -1.367 l 0.341,0.514 z m 0,-14.709 c -0.342,0.115 -0.659,0.23 -0.941,0.342 -0.285,0.115 -0.486,0.458 -0.599,1.026 -0.343,0.23 -0.628,0.427 -0.856,0.599 -0.228,0.171 -0.456,0.372 -0.683,0.599 -0.23,0.229 -0.457,0.4 -0.684,0.514 l 2.051,-0.685 v 0.513 l -1.708,1.027 -0.172,-0.342 -0.171,0.512 -0.17,0.171 c 0,-1.025 0.025,-2.336 0.085,-3.934 0.056,-1.595 0.142,-3.135 0.257,-4.618 0.111,-1.48 0.312,-2.763 0.598,-3.848 0.284,-1.082 0.712,-1.625 1.282,-1.625 0.455,0.457 0.797,0.743 1.027,0.855 -0.572,0.23 -1.056,0.427 -1.455,0.599 -0.399,0.171 -0.313,0.428 0.257,0.77 0.57,0.457 1.198,0.572 1.883,0.342 l 0.684,1.026 -2.053,0.513 2.224,2.053 0.341,3.591 z m 6.328,11.63 -2.224,-1.195 -0.17,2.051 -1.027,-0.513 -1.026,-2.565 5.985,1.197 z m 10.091,2.909 -1.54,-1.197 1.027,-0.514 1.025,0.856 z m 7.695,-1.026 c -0.229,0 -0.341,-0.057 -0.341,-0.171 0.341,0 0.568,0.059 0.683,0.171 z m 1.37,-1.027 c -0.229,-0.111 -0.4,-0.172 -0.514,-0.172 -0.114,0 -0.229,-0.055 -0.342,-0.171 -0.571,-0.342 -1.142,-0.514 -1.709,-0.514 0,-0.91 -0.287,-1.081 -0.856,-0.512 l -0.342,0.341 c -0.572,0 -1.056,0.031 -1.454,0.086 -0.4,0.06 -0.769,0.085 -1.111,0.085 l -0.342,-0.683 -0.686,0.854 -0.342,0.171 c -0.343,0 -0.742,-0.056 -1.197,-0.171 -0.341,-0.111 -0.683,-0.197 -1.025,-0.257 -0.343,-0.055 -0.572,-0.197 -0.685,-0.427 -0.343,-0.343 -0.97,-0.171 -1.88,0.512 l -0.856,-1.025 -2.053,1.368 -2.053,-1.538 v 0.17 l -2.736,-1.882 6.671,-7.354 14.025,10.09 z m -16.248,-15.393 c 0.568,0.342 1.539,1 2.907,1.967 1.368,0.97 2.907,2.082 4.618,3.335 1.71,1.255 3.447,2.565 5.217,3.934 1.766,1.368 3.276,2.565 4.531,3.592 -0.115,0.229 -0.201,0.457 -0.255,0.684 -0.061,0.229 -0.146,0.458 -0.257,0.685 -0.914,-0.797 -1.969,-1.682 -3.164,-2.651 -1.198,-0.968 -2.425,-1.966 -3.678,-2.993 -1.257,-1.025 -2.511,-2.022 -3.763,-2.993 -1.256,-0.967 -2.338,-1.852 -3.25,-2.651 -2.053,-1.822 -3.022,-2.736 -2.907,-2.736 v -0.173 z m -3.592,-1.197 c 0.227,0.115 0.454,0.286 0.685,0.513 0.226,0.572 0.368,1.141 0.427,1.71 0.056,0.571 -0.03,1.026 -0.256,1.368 -0.115,0.229 -0.031,0.457 0.256,0.684 0.284,0.229 0.599,0.401 0.94,0.513 0.342,0.116 0.599,0.116 0.77,0 0.172,-0.112 0.086,-0.342 -0.257,-0.684 -0.456,-0.569 -0.57,-1.197 -0.342,-1.881 0.455,0.457 1.139,0.914 2.054,1.368 0.454,0.229 0.854,0.401 1.195,0.513 l -5.814,8.551 -2.051,-1.366 2.394,0.854 -3.592,-4.446 3.935,3.078 c -0.457,-0.685 -0.915,-1.37 -1.37,-2.053 -0.456,-0.569 -0.913,-1.197 -1.366,-1.882 -0.458,-0.684 -0.801,-1.31 -1.027,-1.881 0.111,-0.227 0.197,-0.427 0.257,-0.599 0.056,-0.171 0.142,-0.369 0.257,-0.598 0.343,0.456 0.684,0.799 1.025,1.025 0.343,0.23 0.569,0.059 0.684,-0.513 0.114,-0.912 -0.171,-1.71 -0.854,-2.395 l -0.687,-1.195 1.881,-0.684 -0.172,-0.342 c 0.455,0 0.796,0.115 1.028,0.342 z M 62.941,6.2912281 c 0.112,-0.056 0.283,-0.197 0.512,-0.428 -0.114,0.23 -0.199,0.514 -0.255,0.855 -0.059,0.343 -0.145,0.628 -0.257,0.855 -0.229,-0.455 -0.343,-0.74 -0.343,-0.855 0.113,-0.226 0.227,-0.368 0.343,-0.427 z m -2.225,4.5319999 c 0.455,-0.569 0.741,-1.1969999 0.856,-1.8809999 0,-0.342 0.056,-0.625 0.171,-0.855 0.454,0.229 0.739,0.341 0.854,0.341 -0.229,0.8 -0.456,1.5989999 -0.684,2.3949999 -0.23,0.799 -0.457,1.655 -0.685,2.565 -0.571,1.599 -1.084,3.108 -1.539,4.533 -0.458,1.427 -0.854,2.766 -1.196,4.019 -0.231,0.572 -0.429,1.085 -0.6,1.54 -0.171,0.457 -0.315,0.855 -0.428,1.197 -0.229,0.457 -0.343,0.799 -0.343,1.026 h -0.171 c 0.114,-0.911 0.541,-2.849 1.284,-5.815 0.741,-2.964 1.569,-5.986 2.481,-9.065 z m -1.025,-3.0779999 -0.171,0.171 h -0.343 c 0.113,-0.112 0.284,-0.171 0.514,-0.171 z m -6.67,4.4469999 1.368,0.171 v 0.855 l -1.881,-0.171 z m -4.105,5.644 0.341,-0.342 0.172,-0.513 1.71,-0.342 0.343,-0.854 c 0.227,0.115 0.397,0.23 0.514,0.342 0.11,0.115 0.282,0.171 0.513,0.171 0.454,0.229 1.053,0.401 1.795,0.513 0.74,0.115 1.053,-0.112 0.941,-0.684 -0.115,-0.227 -0.086,-0.513 0.086,-0.855 0.171,-0.342 0.368,-0.684 0.598,-1.026 0.227,-0.342 0.514,-0.684 0.854,-1.026 0.228,-0.113 0.514,-0.228 0.855,-0.342 0.229,-0.112 0.514,-0.227 0.856,-0.342 0.342,-0.112 0.683,-0.283 1.025,-0.513 l -1.539,4.276 -2.907,3.934 1.196,2.223 -0.683,1.026 c -0.231,0.229 -0.458,0.542 -0.686,0.94 -0.23,0.401 -0.4,0.77 -0.513,1.112 -0.457,-0.228 -0.885,-0.484 -1.283,-0.77 -0.4,-0.284 -0.828,-0.54 -1.282,-0.77 -0.23,-0.342 -0.371,-0.685 -0.428,-1.026 -0.06,-0.342 -0.145,-0.625 -0.257,-0.855 -0.114,-0.342 -0.171,-0.625 -0.171,-0.855 l -0.172,2.223 c -0.113,0 -0.171,-0.026 -0.171,-0.086 0,-0.055 -0.059,-0.085 -0.171,-0.085 l -0.513,-2.907 -0.854,1.197 0.683,-3.762 -1.539,1.197 z m -0.684,1.197 -1.539,1.197 -0.171,-0.684 z m -1.882,3.079 c 0.569,0.457 0.968,0.799 1.197,1.026 0.229,0.229 0.453,0.457 0.685,0.684 -0.231,0 -0.542,-0.085 -0.941,-0.257 -0.399,-0.172 -0.999,-0.599 -1.795,-1.282 -0.23,-0.113 -0.458,-0.399 -0.685,-0.855 0.454,0 0.968,0.23 1.539,0.684 z m -2.565,-3.25 -0.171,0.171 -0.513,0.171 z m 0.855,7.355 2.053,13.682 1.196,-13.341 0.514,15.393 v 0.684 l -2.395,0.343 1.881,1.198 -0.855,2.735 v -2.394 l -3.42,4.445 2.054,-4.616 -1.712,2.052 c -0.572,0.571 -1.084,1.141 -1.539,1.71 -0.458,0.572 -0.97,1.086 -1.54,1.539 -0.685,0 -1.141,-0.056 -1.369,-0.171 0.342,-0.454 0.599,-0.882 0.77,-1.282 0.171,-0.398 -0.085,-0.541 -0.77,-0.427 -0.685,0.114 -1.17,0.313 -1.454,0.598 -0.286,0.287 -0.542,0.598 -0.77,0.94 l -1.026,0.855 -1.026,-1.198 c 0,-0.341 0.284,-0.684 0.855,-1.024 l 0.685,-0.342 -2.053,-0.686 1.539,-1.539 -3.078,-0.514 1.197,-1.196 c -0.23,-0.454 -0.457,-0.911 -0.684,-1.369 -0.229,-0.454 -0.427,-0.91 -0.599,-1.367 -0.171,-0.455 -0.372,-0.968 -0.598,-1.54 l 1.025,-2.737 -1.539,1.71 c 0,-0.112 -0.059,-0.227 -0.17,-0.342 l 1.197,-2.565 -1.368,0.341 2.736,-2.565 -3.591,0.171 -0.171,-0.682 0.171,-0.171 1.539,0.684 c 0.227,-0.342 0.569,-0.74 1.026,-1.197 0.227,-0.342 0.54,-0.684 0.941,-1.026 0.398,-0.342 0.77,-0.74 1.111,-1.197 0.342,0 0.711,-0.027 1.112,-0.085 0.398,-0.057 0.711,-0.086 0.941,-0.086 h 0.855 l -2.224,-0.684 0.342,-0.342 2.907,0.171 -0.855,-1.198 1.71,0.855 -0.855,1.197 1.369,-1.026 1.197,0.684 -0.513,-1.026 z m -3.421,-0.684 c 0,0.229 0.027,0.372 0.085,0.427 0.057,0.059 0.086,0.145 0.086,0.257 v 0.171 l -0.513,0.855 -0.685,-1.54 z m -1.881,-7.355 1.197,2.223 -0.171,0.171 -1.368,-2.053 z m 0.171,5.473 c 0,0.115 -0.058,0.171 -0.171,0.171 l -0.17,0.342 c 0,0.115 -0.171,0.342 -0.514,0.685 -1.026,0.914 -1.769,1.426 -2.223,1.539 0,-0.228 0.112,-0.54 0.342,-0.941 0.227,-0.398 0.796,-0.882 1.709,-1.454 0.455,-0.227 0.797,-0.342 1.027,-0.342 z m -8.038,-14.5369999 0.342,1.8809999 -1.026,-0.171 -0.172,-1.3689999 z m -7.869,8.2089999 -0.854,-0.685 0.684,-1.197 1.026,0.342 z m 2.395,4.446 0.171,-1.71 -0.684,-0.684 c 0.342,-0.112 0.684,-0.342 1.026,-0.684 0.227,-0.342 0.569,-0.826 1.026,-1.454 0.454,-0.625 0.398,-1.053 -0.171,-1.283 -0.229,0 -0.457,-0.141 -0.684,-0.427 -0.229,-0.283 -0.457,-0.54 -0.684,-0.77 -0.23,-0.342 -0.457,-0.74 -0.685,-1.197 0,-0.796 -0.059,-1.596 -0.17,-2.395 -0.116,-0.684 -0.316,-1.3389999 -0.599,-1.9669999 -0.286,-0.625 -0.77,-1.167 -1.454,-1.625 -0.115,-0.112 -0.229,-0.198 -0.342,-0.256 -0.115,-0.056 -0.23,-0.142 -0.342,-0.256 0.227,-0.112 0.369,-0.227 0.427,-0.343 0.057,-0.112 0.198,-0.283 0.428,-0.513 0.341,-0.684 0.227,-0.912 -0.343,-0.684 0.113,0 0.199,-0.027 0.257,-0.085 0.057,-0.056 0.142,-0.085 0.257,-0.085 0.112,0.229 0.198,0.372 0.256,0.428 0.056,0.059 0.142,0.201 0.256,0.427 0.112,0.572 0.398,1.026 0.855,1.368 -0.572,0.685 -0.457,1.026 0.342,1.026 0.112,-0.112 0.283,-0.171 0.513,-0.171 0.912,0.685 1.596,1.141 2.053,1.369 l -0.342,0.6839999 1.026,-0.342 0.342,0.171 c 0.228,0.342 0.514,0.684 0.855,1.026 0.228,0.229 0.428,0.457 0.599,0.684 0.17,0.229 0.256,0.457 0.256,0.684 0.113,0.343 0.684,0.628 1.71,0.855 l 0.171,1.197 2.223,0.171 0.514,2.395 2.052,0.17 0.684,1.71 -0.513,1.881 -5.815,-5.473 4.618,6.499 -2.566,-1.881 0.171,5.644 -1.368,-4.789 v 2.395 c 0,0.684 -0.029,1.454 -0.085,2.309 -0.059,0.855 -0.144,1.569 -0.257,2.138 -0.229,0.23 -0.401,0.372 -0.513,0.427 -0.115,0.06 -0.286,0.201 -0.513,0.428 -0.115,-0.569 -0.2,-1.083 -0.256,-1.539 -0.06,-0.455 -0.372,-0.399 -0.941,0.17 -0.229,0.23 -0.457,0.685 -0.684,1.369 h -1.026 l -0.342,-0.684 0.17,-0.685 0.684,-0.17 -0.513,-0.685 v -0.513 l -0.684,-0.513 -0.171,-0.171 0.171,-1.71 -0.855,-1.026 v -0.513 z m 3.25,13.512 c 0.341,0.914 0.513,1.539 0.513,1.882 -0.229,0 -0.401,-0.171 -0.513,-0.514 l 0.17,0.171 z m -0.171,-4.617 -1.198,0.17 h -0.17 l 0.342,-0.341 z m -3.763,7.867 2.908,1.026 -3.763,-0.342 c 0.227,-0.112 0.513,-0.342 0.855,-0.684 z m -1.197,0.855 c 0.684,0.229 1.539,0.572 2.565,1.026 1.026,0.457 1.994,0.913 2.907,1.368 0,0.229 0.027,0.458 0.086,0.684 0.056,0.231 0.085,0.458 0.085,0.685 -0.572,-0.227 -1.056,-0.343 -1.454,-0.343 -0.401,0 -0.486,0.287 -0.257,0.856 0.228,0.572 0.54,0.941 0.941,1.111 0.398,0.171 0.826,0.315 1.282,0.428 l 1.026,0.684 -1.197,1.54 1.197,0.684 c -0.799,0.801 -1.368,1.197 -1.71,1.197 -0.914,-0.684 -1.427,-1.253 -1.539,-1.709 0,-0.229 -0.2,-0.343 -0.599,-0.343 -0.4,0 -0.77,0.059 -1.112,0.171 -0.342,0.114 -0.572,0.257 -0.684,0.429 -0.115,0.171 0.057,0.313 0.513,0.426 0.911,0 1.48,0.401 1.71,1.197 -0.572,0 -1.055,0.03 -1.454,0.086 -0.4,0.06 -0.828,0.146 -1.282,0.256 -0.457,0.114 -0.915,0.172 -1.369,0.172 l -1.71,-1.027 -4.96,1.027 -8.7219998,0.342 8.3799998,-5.985 1.197,-1.712 3.592,-2.394 c 0.227,0 0.513,-0.056 0.855,-0.171 0.687,-0.228 1.256,-0.455 1.713,-0.685 z m -15.3929998,8.382 c 1.254,-0.913 2.5069998,-1.883 3.7629998,-2.909 1.253,-0.911 2.506,-1.852 3.763,-2.821 1.254,-0.969 2.336,-1.852 3.25,-2.651 l 3.42,-2.223 c -0.341,0.456 -1.084,1.17 -2.223,2.137 -1.141,0.97 -2.454,2.111 -3.934,3.42 -1.483,1.312 -3.022,2.625 -4.618,3.935 -1.598,1.312 -3.0779998,2.539 -4.4459998,3.677 h -2.224 c 0.911,-0.797 1.993,-1.652 3.249,-2.565 z m -3.42,2.907 h 2.052 c -0.342,0.229 -0.658,0.428 -0.941,0.599 -0.286,0.17 -0.542,0.371 -0.77,0.598 h -2.052 c 0.227,-0.227 0.484,-0.428 0.77,-0.598 0.283,-0.172 0.598,-0.37 0.941,-0.599 z"
     id="path3785"
     inkscape:connector-curvature="0" /><path
     d="m 42.588,78.039228 -0.171,-0.854 v 0.684 c 0,0.114 0.056,0.17 0.171,0.17 z"
     id="path3787"
     inkscape:connector-curvature="0" /><path
     d="m 63.293,1.5152281 0.159,-0.44 c -0.099,0.1 -0.148,0.253 -0.159,0.44 z"
     id="path3789"
     inkscape:connector-curvature="0" /></svg>