<?xml version="1.0" encoding="UTF-8"?><svg xmlns="http://www.w3.org/2000/svg" xmlns:xlink="http://www.w3.org/1999/xlink"><symbol viewBox="0 -64.3 55.51 150.08" id="logo_texte" xmlns="http://www.w3.org/2000/svg"><g fill="#00465b"><path class="ast331" d="M10.715 10.345c0 2.011-.397 3.228-1.244 3.995-.846.794-2.09 1.059-3.175 1.059-1.058 0-2.196-.265-2.91-.715l.397-1.217c.582.37 1.481.688 2.566.688 1.614 0 2.831-.846 2.831-3.042v-.98h-.026c-.476.82-1.429 1.456-2.778 1.456-2.17 0-3.73-1.852-3.73-4.26 0-2.963 1.93-4.657 3.941-4.657 1.508 0 2.355.794 2.726 1.509h.026l.08-1.323h1.402c-.027.635-.08 1.349-.08 2.407v5.08zM9.154 6.297a2.95 2.95 0 00-.08-.714c-.29-.926-1.058-1.693-2.222-1.693-1.508 0-2.593 1.296-2.593 3.307 0 1.72.873 3.148 2.593 3.148.979 0 1.852-.608 2.196-1.614.08-.264.132-.582.132-.846V6.297zM21.272 7.144c0 3.228-2.25 4.656-4.366 4.656-2.355 0-4.18-1.746-4.18-4.497 0-2.937 1.905-4.657 4.339-4.657 2.513 0 4.207 1.826 4.207 4.498zm-6.932.106c0 1.905 1.11 3.36 2.645 3.36 1.508 0 2.646-1.429 2.646-3.387 0-1.481-.74-3.36-2.62-3.36S14.34 5.583 14.34 7.25zM29.5 11.271c-.423.212-1.35.53-2.514.53-2.645 0-4.365-1.8-4.365-4.472 0-2.699 1.852-4.657 4.71-4.657.952 0 1.772.239 2.195.45l-.37 1.217c-.37-.211-.979-.423-1.852-.423-2.01 0-3.096 1.482-3.096 3.307 0 2.038 1.297 3.281 3.043 3.281.9 0 1.508-.238 1.958-.423zM31.378 5.583c0-1.032-.026-1.905-.079-2.725h1.402l.053 1.72h.08c.397-1.165 1.349-1.906 2.434-1.906.185 0 .317.027.45.053v1.508a2.975 2.975 0 00-.53-.052c-1.11 0-1.905.846-2.143 2.037-.026.211-.079.476-.079.74v4.657h-1.588zM52.862 7.144c0 3.228-2.249 4.656-4.365 4.656-2.355 0-4.18-1.746-4.18-4.497 0-2.937 1.904-4.657 4.339-4.657 2.513 0 4.206 1.826 4.206 4.498zm-6.932.106c0 1.905 1.112 3.36 2.646 3.36 1.508 0 2.646-1.429 2.646-3.387 0-1.481-.74-3.36-2.62-3.36S45.93 5.583 45.93 7.25z"/><g><path class="ast331" d="M7.751 17.224v1.588H7.54v-1.588zM11.138 18.759c-.08.026-.238.08-.45.08-.476 0-.846-.292-.846-.794s.37-.82.9-.82c.21 0 .343.052.396.079l-.053.158a1.174 1.174 0 00-.344-.052c-.397 0-.661.238-.661.661 0 .397.238.635.661.635.133 0 .265-.026.37-.053zM14.101 18.071h-.661v.582h.74v.159h-.978v-1.588h.926v.16h-.715v.502h.662v.185zM19.472 18.071h-.661v.582h.74v.159h-.978v-1.588h.926v.16h-.715v.502h.662v.185zM22.568 18.812l-.212-.344c-.08-.132-.158-.212-.211-.318-.053.08-.106.186-.186.318l-.211.344h-.265l.53-.794-.503-.794h.264l.238.37c.053.107.106.186.16.265.052-.105.078-.158.158-.264l.238-.37h.265l-.53.767.53.82zM24.87 17.25c.106-.026.238-.026.423-.026.212 0 .37.053.476.133s.16.185.16.344a.503.503 0 01-.133.344c-.106.105-.318.185-.53.185-.079 0-.132 0-.185-.027v.635h-.211zm.211.742c.053 0 .106.026.186.026.264 0 .423-.132.423-.344s-.159-.317-.397-.317c-.106 0-.159 0-.212.026zM28.918 18.071h-.662v.582h.741v.159h-.979v-1.588h.926v.16h-.714v.502h.661v.185zM31.061 17.25c.106-.026.265-.026.423-.026.238 0 .397.053.503.133.08.079.132.185.132.29 0 .212-.132.345-.317.398.132.052.211.158.264.317.053.212.106.37.133.423h-.238a1.285 1.285 0 01-.106-.37c-.053-.212-.133-.291-.344-.318h-.212v.688h-.212v-1.534zm.212.715h.238c.238 0 .397-.132.397-.29 0-.213-.16-.292-.397-.292-.106 0-.185 0-.212.027v.555zM34.448 17.224v1.588h-.212v-1.588zM37.517 18.071h-.662v.582h.741v.159h-.979v-1.588h.926v.16h-.714v.502h.661v.185zM39.66 18.812v-1.588h.238l.556.794c.132.185.238.344.317.503-.026-.212-.026-.397-.026-.662v-.661h.211v1.587h-.211l-.556-.793a2.803 2.803 0 01-.318-.53c0 .212.027.397.027.662v.688zM44.343 18.759c-.08.026-.238.08-.45.08-.476 0-.847-.292-.847-.794s.37-.82.9-.82c.212 0 .344.052.397.079l-.053.158a1.174 1.174 0 00-.344-.052c-.397 0-.661.238-.661.661 0 .397.238.635.661.635.132 0 .265-.026.37-.053zM47.306 18.071h-.661v.582h.74v.159h-.978v-1.588h.926v.16h-.715v.502h.662v.185z"/></g><g><path class="ast331" d="M38.02 3.07c.158.185 1.11 1.507 2.91 3.942.423.502.608.873.608 1.137v6.27c0 .08 0 .16-.026.265-.185.45-.503.688-.9.688l-.211-.026c-.477-.159-.715-.476-.715-.926V8.467L36.908 4.71c-.317-.397-.502-.715-.502-.953v-.026c0-.053 0-.106.026-.185.185-.503.476-.741.9-.741.238-.027.476.08.687.264zm6.032-.265c.476.159.714.45.714.9v.026c0 .106-.026.211-.08.37-.237.37-.502.556-.82.556-.105-.027-.185-.027-.29-.053-.45-.185-.662-.476-.662-.873 0-.133.027-.238.053-.318.212-.45.503-.661.873-.661.053.026.132.026.212.053z"/></g><g><path class="ast332" d="M51.143 17.145c.264 0 .476.185.476.423s-.212.424-.476.424-.503-.186-.503-.424.238-.423.503-.423zm0 .08c-.212 0-.37.158-.37.317 0 .185.158.317.37.317s.37-.158.37-.317c0-.185-.159-.318-.37-.318zm-.08.529h-.106v-.424c.053 0 .106-.026.186-.026s.132 0 .158.026.053.053.053.08c0 .052-.053.079-.106.105.053 0 .08.053.08.106.026.053.026.08.026.106h-.132c-.026-.026-.026-.053-.026-.106s-.027-.053-.106-.053h-.053v.186zm0-.212h.053c.053 0 .106-.027.106-.053s-.026-.053-.106-.053h-.053z"/></g></g></symbol><symbol viewBox="0 -3.44 85.6 85.6" id="spiritisme" xmlns="http://www.w3.org/2000/svg"><path d="M3.934 53.411c.138-.068.262-.166.379-.275l-.892.617c.112 0 .283-.112.513-.342zM2.395 52.726l-.171.172.514-.428a1.39 1.39 0 00-.343.256zM3.25 52.043l-.512.427c.112-.058.282-.198.512-.427zM64.685 1.666c.086-.196.137-.393.137-.592z"/><path d="M2.908 50.59c.57.058 1.254.085 2.053.085l-1.539 1.196H.343l2.907.172 2.053.17c-.342.23-.599.457-.77.685a1.938 1.938 0 01-.22.238l1.331-.923 16.59.685.684 10.946 1.369-11.118c.569.231 1.082.402 1.539.514 1.026.457 1.994.572 2.907.343.912-.229 1.454-.398 1.625-.514.171-.11.54-.11 1.112 0h.342c-.116.456-.401.8-.855 1.027-.23.114-.286.342-.171.683.112.343.283.658.513.94.228.287.428.458.599.514.171.06.257-.142.257-.6-.115-.683.056-1.252.513-1.709 0 .23.026.371.085.43.057.056.085.142.085.256v.341l.343-.34c.112.682.398 1.31.855 1.88.227.341.398.571.513.684l-.513 1.88 2.223 4.277 5.131 15.392a75.801 75.801 0 00-1.198-3.933 734.615 734.615 0 00-2.394-8.552 732.891 732.891 0 01-2.394-8.55c-.799-2.623-1.085-3.936-.855-3.936l.342.514c.342.684.741 1.71 1.197 3.078.454 1.368.94 2.881 1.454 4.532a436.21 436.21 0 001.625 5.131 439.03 439.03 0 011.539 4.875c-.572.23-.77.372-.599.426.17.061.427.146.77.257.227.343.369.714.427 1.113.057.4.142.713.257.94l-.171.342.171.171.342.684c-.229 1.027-.371 1.826-.427 2.396-.059.571.026.571.257 0v-.172c0 .116.056 0 .17-.34l.514-.515c.227-.228.427-.399.598-.514.171-.11.369-.228.599-.342h.684v-.685c0-.568.172-.91.514-1.026.227-.112.6-.084 1.111.086.514.171.969.315 1.368.428.399.116.656.172.771.172.111 0-.061-.284-.514-.854a9.096 9.096 0 00-1.709-1.37c-.573-.342-1.027-.685-1.369-1.026.112-.226.198-.368.257-.427.057-.056.143-.198.256-.427.228-.229.569-.626 1.026-1.198h.769c.171 0 .143-.282-.084-.855 0-.11-.03-.172-.086-.172-.059 0-.085-.054-.085-.17.227-1.14.397-1.939.512-2.395h.685l-.685-.856v-.34c.114-.343.284-.74.514-1.197.229-.229.399-.485.514-.77.111-.283.282-.484.514-.6.227-.112.342-.343.342-.684 0-.343-.06-.684-.171-1.026l1.025-.685-.683-2.224 1.88-1.197-.514-2.053.514-.512 2.907.171.685-2.566.685-.17.854.342v.683l.854-.17.514.17.685-.683h.171l1.709.683 1.37-.683.513.17.514-.342 1.538.684.855-.512c.228.683.398 1.085.514 1.196.228.343.625.8 1.197 1.37.569.57.967.627 1.196.17.113-.228.343-.398.686-.513.342-.112.683-.229 1.025-.343l1.368-.342c.911.23 1.766.4 2.564.514a6.735 6.735 0 002.14 0c.739-.113 1.396-.455 1.966-1.027.113-.11.229-.197.343-.257.111-.056.227-.142.342-.257.111.231.398.573.854 1.027.343.342.541.486.6.428.056-.057.085-.198.085-.428 0-.229-.029-.514-.085-.856-.059-.342.027-.567.255-.683.229-.113.627-.172 1.198-.172.228 0 .514.06.856.172-.116 0-.116-.056 0-.172 0-.112.226-.283.683-.512 1.139-.229 1.993-.343 2.566-.343.568 0 .568-.057 0-.17h-.685c-.572-.113-.941-.284-1.112-.515a7.103 7.103 0 00-.598-.685c-.229-.227-.343-.453-.343-.685-.115.117-.229.171-.341.171h-.685l-1.198-1.025a6.729 6.729 0 010-2.139c.112-.738-.114-.653-.684.257-.115.231-.171.402-.171.514 0 .114-.059.285-.171.514l-9.065-8.21-2.565-4.105-2.564.342a9.34 9.34 0 00-.856-1.368 12.54 12.54 0 00-.854-1.112 5.275 5.275 0 00-1.025-.94c-.8-.342-1.284-.514-1.455-.514-.171 0-.485-.228-.94-.684-.342-.228-.4-.685-.171-1.369.113-.342.227-.625.341-.855l-2.051.513v-.685c.453-.227.882-.454 1.282-.684.398-.227.712-.34.94-.34.228 0 .399-.143.513-.429.113-.283.144-.598.086-.94-.059-.342-.144-.599-.257-.77-.114-.172-.285-.027-.514.427-.228.684-.741 1.025-1.537 1.025.111-.34.227-.739.342-1.197.111-.454.171-.855.171-1.197v-1.368l1.367-1.368.514-4.618 2.053-8.209c.796.115.854-.17.171-.855l.512-2.052h.343l.171-.17v-.172c0-.227.058-.455.172-.684.685-.797 1.254-1.395 1.71-1.796.455-.398.398-.427-.171-.086h-.17l-.343.171c-.458.23-.799.342-1.026.342l.376-1.632c-.013.031-.02.062-.034.092-.229.343-.4.855-.514 1.54-.57 0-.97-.113-1.196-.342.112-.227.171-.455.171-.684 0-.228.056-.454.171-.684 0-.028.009-.047.011-.073l-.524 1.441-.171-.17-.341.683c-.343.342-.744.514-1.198.514-.229 0-.514-.228-.855-.684a24.374 24.374 0 01-.854-1.197c-.23-.343-.401-.54-.513-.599-.115-.056-.115.256 0 .941.226.8.427 1.512.598 2.138.172.628.37 1.17.598 1.625-.456.23-.799.342-1.024.342-.573 0-1.087.17-1.54.513a4.277 4.277 0 00-.6-.513c-.171-.113-.313.115-.426.684v.513c-.799.572-1.368 1.142-1.711 1.71l-.685-.34v1.024l-.171.171c-.457.23-.854.457-1.197.684-.914.457-1.427.628-1.539.513-.456 0-.799.457-1.027 1.368h-1.373l-.685 2.223h-2.394l-.514 1.881h-.172l-.855-.684-1.368 1.026-.684.513-.684-.342-.342-.684.513-.513-.855-.343-.342-.513-.855.171-.171-.17-.855-1.54-1.367-.338-.342-.342h-.514l-.855-1.54-.855-.17c.228-.454.342-.855.342-1.197.112-.455.142-1.053.086-1.796-.06-.74-.372-.997-.941-.77-.457.115-1.085 0-1.881-.34a3.765 3.765 0 01-1.198-.515 27.795 27.795 0 00-1.369-1.88c-.457-.456-1.026-.883-1.71-1.284a3.363 3.363 0 00-2.223-.427c-.342 0-.628-.056-.855-.17.112-.229.171-.627.171-1.199 0-.91-.171-1.026-.513-.342-.342.684-.743 1.026-1.197 1.026-.23 0-.572-.227-1.026-.684l-.513-.513c0 .115-.059.171-.171.171-.115 0-.201.03-.257.086-.059.058-.201.03-.427-.086A79.727 79.727 0 0118.729.22c-.513-.342-.542-.283-.086.171l.171.171c-.115-.112-.171-.142-.171-.085 0 .056.11.192.318.401-.004.073.001.185.024.368v.171c-.23-.112-.23.058 0 .513 0 .8-.23 1.427-.684 1.881l-.514.513c.228.115.398.286.514.513.227.457.227.855 0 1.197-.115.23-.428.4-.941.513-.513.115-.97.23-1.368.342-.401.115-.658.23-.77.342-.116.115.17.23.855.342.796.23 1.509.316 2.137.257a6.357 6.357 0 011.796.085c0 .572-.06.914-.171 1.026-.229.572-.229 1.085 0 1.54-.914.457-.97.798-.171 1.025l.343.342c.227.457.398.855.513 1.198l.342 1.026-.514.513 1.026.342.171.17c.112.342.171.743.171 1.198v1.026c0 .341-.059.571-.171.684-.23.572.056 1.085.855 1.54l-.513 1.197 1.709 1.54-.854 2.052 1.54 1.37-.685 2.394 2.053-.514-.342 2.395.855.171-.684.513.342.684c-.229 0-.457-.113-.684-.342l-.171-.17.342.684-3.25.854 2.737 1.71-.342.171c-.115 0-.17.06-.17.171-1.369.23-2.395.115-3.079-.342-.23-.112-.457-.086-.684.085-.23.171-.427.401-.599.684-.171.286-.257.542-.257.77 0 .23.171.23.514 0 .684-.454 1.368-.454 2.052 0-.115 0-.171.06-.171.17l-2.907 1.026 1.71.171a4.037 4.037 0 00-.514.6 2.948 2.948 0 01-.341.427c-.115.23-.23.342-.343.342l-2.052.342-3.079 3.591-9.406 8.04L0 50.5h1.368c.455.003.968.031 1.54.088zm78.334-1.456c-.343 0-.572-.11-.686-.34l-.342-.343zM19.195 1.204c.31.471.474.94.474 1.41a26.65 26.65 0 00-.474-1.41zm2.184 8.251a1.496 1.496 0 01-.171-.684c0 .115.056.171.171.171zm5.987 41.733c-.572.114-1.684.2-3.335.255a670.29 670.29 0 01-5.559.172c-2.053.058-4.19.115-6.414.171-2.223.06-4.19.085-5.9.085l1.709-1.196h10.861c1.652 0 3.105.06 4.361.171 2.849 0 4.276.06 4.276.171v.171zm3.762-1.37h-.855c-.229-.227-.457-.342-.684-.342h1.369v.171h.171c.112.116.228.171.342.171zm10.605 24.46l-.342-1.54c.342 0 .513.114.513.341.112.343.055.743-.171 1.198zm2.222-3.849c0 .06-.059.145-.171.257v-.17l.342-.344c-.114.114-.171.2-.171.257zm1.712-6.585l-.686-.685 1.54-1.026.171 1.026zm1.026-8.894l.17 1.368-.17.342.17.514-1.024 1.368.17.854c-.684 0-1.14.06-1.368.171-.343.115-.343.201 0 .257.342.06.685.315 1.027.771.225.23.196.542-.086.94-.287.4-.6.828-.941 1.282a24.92 24.92 0 00-1.539 1.712 10.548 10.548 0 00-1.368 2.051 8.853 8.853 0 00-.514 1.968 3.48 3.48 0 00.342 2.138c.112.114.171.23.171.343 0 .114.056.285.17.512-.342 0-.627.06-.855.171l-2.052-9.578-.855-3.59-1.198-2.397c.113-.342.171-.738.171-1.196v-1.11c0-.4-.059-.827-.171-1.285l.685 1.198c.569 0 1.139-.057 1.71-.17a21.24 21.24 0 011.625-.258 18.64 18.64 0 001.625-.257l2.394 1.71-1.368-1.88h.513l2.224 1.88V53.24l.684 1.37zm2.223-4.104l-.342.343h-.343c-1.142.114-1.997.057-2.564-.172.111-.112.368-.228.769-.342.398-.112 1.168-.17 2.31-.17h.171v.341zm-.341-8.382v-.513h.171zm.513 0v-.34l.683.17zm2.736 2.908c-.23.457-.402.743-.514.854-.229-.453-.229-.967 0-1.537.343-1.37.625-2.166.856-2.396.111.23.171.543.171.941 0 .401-.171 1.113-.513 2.138zm.684 6.841v-1.367l.341.514zm0-14.709c-.342.115-.659.23-.941.342-.285.115-.486.458-.599 1.026-.343.23-.628.427-.856.6a6.436 6.436 0 00-.683.598c-.23.23-.457.4-.684.514l2.051-.685v.513l-1.708 1.027-.172-.342-.171.512-.17.171c0-1.025.025-2.336.085-3.934.056-1.595.142-3.135.257-4.618.111-1.48.312-2.763.598-3.848.284-1.082.712-1.625 1.282-1.625.455.457.797.743 1.027.855-.572.23-1.056.427-1.455.6-.399.17-.313.427.257.77.57.456 1.198.571 1.883.341l.684 1.026-2.053.513 2.224 2.053.341 3.591zm6.328 11.63l-2.224-1.195-.17 2.051-1.027-.513-1.026-2.565 5.985 1.197zm10.091 2.91l-1.54-1.198 1.027-.514 1.025.856zm7.695-1.027c-.229 0-.341-.057-.341-.17.341 0 .568.058.683.17zm1.37-1.027c-.229-.11-.4-.172-.514-.172-.114 0-.229-.055-.342-.17-.571-.343-1.142-.515-1.709-.515 0-.91-.287-1.08-.856-.512l-.342.341c-.572 0-1.056.031-1.454.086-.4.06-.769.085-1.111.085l-.342-.683-.686.854-.342.171a4.96 4.96 0 01-1.197-.17 7.496 7.496 0 00-1.025-.258c-.343-.055-.572-.197-.685-.427-.343-.343-.97-.17-1.88.512l-.856-1.025-2.053 1.368-2.053-1.538v.17l-2.736-1.882 6.671-7.354 14.025 10.09zM61.744 34.597c.568.342 1.539 1 2.907 1.967 1.368.97 2.907 2.082 4.618 3.335a259.198 259.198 0 015.217 3.934 220.467 220.467 0 014.531 3.592 3.155 3.155 0 00-.255.684 3.763 3.763 0 01-.257.685 116.398 116.398 0 00-3.164-2.65 678.34 678.34 0 01-3.678-2.994 196.837 196.837 0 00-3.763-2.993 66.919 66.919 0 01-3.25-2.65c-2.053-1.823-3.022-2.737-2.907-2.737v-.173zM58.152 33.4c.227.115.454.286.685.513.226.572.368 1.141.427 1.71.056.571-.03 1.026-.256 1.368-.115.23-.031.457.256.684.284.23.599.401.94.513.342.116.599.116.77 0 .172-.112.086-.342-.257-.684-.456-.569-.57-1.197-.342-1.88.455.456 1.139.913 2.054 1.367.454.23.854.401 1.195.513l-5.814 8.551-2.051-1.366 2.394.854-3.592-4.446 3.935 3.078-1.37-2.053a25.536 25.536 0 01-1.366-1.882c-.458-.684-.801-1.31-1.027-1.88.111-.228.197-.428.257-.6.056-.17.142-.369.257-.598.343.456.684.8 1.025 1.025.343.23.569.06.684-.513.114-.912-.171-1.71-.854-2.395l-.687-1.195 1.881-.684-.172-.342c.455 0 .796.115 1.028.342zm4.789-27.109c.112-.056.283-.197.512-.428-.114.23-.199.514-.255.855a3.153 3.153 0 01-.257.855c-.229-.455-.343-.74-.343-.855.113-.226.227-.368.343-.427zm-2.225 4.532a4.053 4.053 0 00.856-1.88c0-.343.056-.626.171-.856.454.23.739.341.854.341l-.684 2.395c-.23.8-.457 1.655-.685 2.565a141.582 141.582 0 00-1.539 4.533 95.109 95.109 0 00-1.196 4.02 67.551 67.551 0 00-.6 1.54 33.7 33.7 0 00-.428 1.196c-.229.457-.343.8-.343 1.026h-.171c.114-.91.541-2.849 1.284-5.815a218.776 218.776 0 012.481-9.065zm-1.025-3.078l-.171.171h-.343c.113-.112.284-.17.514-.17zm-6.67 4.447l1.368.171v.855l-1.881-.17zm-4.105 5.644l.341-.342.172-.513 1.71-.342.343-.854c.227.115.397.23.514.342.11.115.282.171.513.171.454.23 1.053.401 1.795.513.74.115 1.053-.112.941-.684-.115-.227-.086-.513.086-.855.171-.342.368-.684.598-1.026.227-.342.514-.684.854-1.026.228-.113.514-.228.855-.342a7.19 7.19 0 01.856-.342 4.165 4.165 0 001.025-.513L57.98 16.3l-2.907 3.934 1.196 2.223-.683 1.026c-.231.23-.458.542-.686.94-.23.401-.4.77-.513 1.112a9.332 9.332 0 01-1.283-.77c-.4-.284-.828-.54-1.282-.77a2.611 2.611 0 01-.428-1.026 3.235 3.235 0 00-.257-.855c-.114-.342-.171-.625-.171-.855l-.172 2.223c-.113 0-.171-.026-.171-.086 0-.055-.059-.085-.171-.085l-.513-2.907-.854 1.197.683-3.762-1.539 1.197zm-.684 1.197l-1.539 1.197-.171-.684zm-1.882 3.08c.569.456.968.798 1.197 1.025.229.23.453.457.685.684-.231 0-.542-.085-.941-.257-.399-.172-.999-.599-1.795-1.282-.23-.113-.458-.399-.685-.855.454 0 .968.23 1.539.684zm-2.565-3.25l-.171.17-.513.171zm.855 7.354L46.693 39.9l1.196-13.34.514 15.392v.684l-2.395.343 1.881 1.198-.855 2.735v-2.394l-3.42 4.445 2.054-4.616-1.712 2.052a20.605 20.605 0 00-1.539 1.71 9.704 9.704 0 01-1.54 1.54c-.685 0-1.141-.057-1.369-.172a6.27 6.27 0 00.77-1.282c.171-.398-.085-.54-.77-.427-.685.114-1.17.313-1.454.598a6.188 6.188 0 00-.77.94l-1.026.855-1.026-1.198c0-.34.284-.684.855-1.024l.685-.342-2.053-.686 1.539-1.539-3.078-.514 1.197-1.196c-.23-.454-.457-.91-.684-1.369a13.91 13.91 0 01-.599-1.367c-.171-.455-.372-.968-.598-1.54l1.025-2.737-1.539 1.71c0-.112-.059-.227-.17-.342l1.197-2.565-1.368.341 2.736-2.565-3.591.171-.171-.682.171-.17 1.539.683c.227-.342.569-.74 1.026-1.197.227-.342.54-.684.941-1.026.398-.342.77-.74 1.111-1.197a7.77 7.77 0 001.112-.085 7.05 7.05 0 01.941-.086h.855l-2.224-.684.342-.342 2.907.171-.855-1.198 1.71.855-.855 1.197 1.369-1.026 1.197.684-.513-1.026zm-3.421-.684c0 .23.027.372.085.427.057.06.086.145.086.257v.171l-.513.855-.685-1.54zm-1.881-7.355l1.197 2.223-.171.171-1.368-2.053zm.171 5.473c0 .115-.058.171-.171.171l-.17.342c0 .115-.171.342-.514.685-1.026.914-1.769 1.426-2.223 1.54 0-.229.112-.54.342-.942.227-.398.796-.882 1.709-1.454.455-.227.797-.342 1.027-.342zM31.471 9.114l.342 1.881-1.026-.17-.172-1.37zm-7.869 8.21l-.854-.686.684-1.197 1.026.342zm2.395 4.445l.171-1.71-.684-.684c.342-.112.684-.342 1.026-.684.227-.342.569-.826 1.026-1.454.454-.625.398-1.053-.171-1.283-.229 0-.457-.14-.684-.427-.229-.283-.457-.54-.684-.77-.23-.342-.457-.74-.685-1.197 0-.796-.059-1.596-.17-2.395a8.037 8.037 0 00-.599-1.967c-.286-.625-.77-1.167-1.454-1.625a1.45 1.45 0 00-.342-.256 1.266 1.266 0 01-.342-.256c.227-.112.369-.227.427-.343.057-.112.198-.283.428-.513.341-.684.227-.912-.343-.684.113 0 .199-.027.257-.085.057-.056.142-.085.257-.085.112.23.198.372.256.428.056.06.142.201.256.427a2.17 2.17 0 00.855 1.368c-.572.685-.457 1.026.342 1.026.112-.112.283-.17.513-.17.912.684 1.596 1.14 2.053 1.368l-.342.684 1.026-.342.342.171c.228.342.514.684.855 1.026.228.23.428.457.599.684.17.23.256.457.256.684.113.343.684.628 1.71.855l.171 1.197 2.223.171.514 2.395 2.052.17.684 1.71-.513 1.881-5.815-5.473 4.618 6.5-2.566-1.882.171 5.644-1.368-4.789v2.395c0 .684-.029 1.454-.085 2.31-.059.854-.144 1.568-.257 2.137-.229.23-.401.372-.513.427-.115.06-.286.201-.513.428-.115-.569-.2-1.083-.256-1.539-.06-.455-.372-.399-.941.17-.229.23-.457.685-.684 1.37h-1.026l-.342-.685.17-.685.684-.17-.513-.685v-.513l-.684-.513-.171-.17.171-1.71-.855-1.027v-.513zm3.25 13.512c.341.914.513 1.54.513 1.882-.229 0-.401-.17-.513-.514l.17.171zm-.171-4.617l-1.198.17h-.17l.342-.34zm-3.763 7.867l2.908 1.026-3.763-.342c.227-.112.513-.342.855-.684zm-1.197.855c.684.23 1.539.572 2.565 1.026a74.27 74.27 0 012.907 1.368c0 .23.027.458.086.684.056.231.085.458.085.685-.572-.227-1.056-.343-1.454-.343-.401 0-.486.287-.257.856.228.572.54.941.941 1.111.398.171.826.315 1.282.428l1.026.684-1.197 1.54 1.197.684c-.799.801-1.368 1.197-1.71 1.197-.914-.684-1.427-1.253-1.539-1.709 0-.229-.2-.343-.599-.343-.4 0-.77.06-1.112.171-.342.114-.572.257-.684.43-.115.17.057.312.513.425.911 0 1.48.401 1.71 1.197-.572 0-1.055.03-1.454.086-.4.06-.828.146-1.282.256a5.65 5.65 0 01-1.369.172l-1.71-1.027-4.96 1.027-8.722.342 8.38-5.985 1.197-1.712 3.592-2.394c.227 0 .513-.056.855-.17a12.922 12.922 0 001.713-.686zM8.723 47.768a85.524 85.524 0 003.763-2.909 167.534 167.534 0 003.763-2.82 70.201 70.201 0 003.25-2.652l3.42-2.223c-.341.456-1.084 1.17-2.223 2.137a269.69 269.69 0 00-3.934 3.42 164.01 164.01 0 01-4.618 3.935 886.575 886.575 0 00-4.446 3.677H5.474a46.383 46.383 0 013.249-2.565zm-3.42 2.907h2.052c-.342.23-.658.428-.941.6-.286.17-.542.37-.77.597H3.592c.227-.227.484-.428.77-.598.283-.172.598-.37.941-.599z"/><path d="M42.588 78.04l-.171-.855v.684c0 .114.056.17.171.17zM63.293 1.515l.159-.44c-.099.1-.148.253-.159.44z"/></symbol></svg>